<svg xmlns="http://www.w3.org/2000/svg" viewBox="0 0 32 32">
  <defs>
    <linearGradient id="g" x1="0" y1="0" x2="1" y2="1">
      <stop offset="0" stop-color="#f759f5"/>
      <stop offset="1" stop-color="#3e36ed"/>
    </linearGradient>
    <linearGradient id="shine" x1="0" y1="0" x2="0" y2="1">
      <stop offset="0" stop-color="#fff" stop-opacity="0.28"/>
      <stop offset="0.55" stop-color="#fff" stop-opacity="0"/>
    </linearGradient>
  </defs>
  <rect width="32" height="32" rx="8" fill="url(#g)"/>
  <rect width="32" height="32" rx="8" fill="url(#shine)"/>
  <g transform="translate(1 0.7) scale(1.25) rotate(-10 12 12)">
    <path d="M12 21.2C7.2 16.9 3 13.6 3 9.3 3 6.5 5.1 4.4 7.7 4.4c1.8 0 3.3 1 4.3 2.5 1-1.5 2.5-2.5 4.3-2.5 2.6 0 4.7 2.1 4.7 4.9 0 4.3-4.2 7.6-9 11.9ZM16.4 6.2l.65 1.75 1.75.65-1.75.65-.65 1.75-.65-1.75-1.75-.65 1.75-.65Z" fill="#fff" fill-rule="evenodd"/>
    <path d="M20.6 1.9l.45 1.15 1.15.45-1.15.45-.45 1.15-.45-1.15-1.15-.45 1.15-.45Z" fill="#fff"/>
  </g>
</svg>
